HIERARCHY
ROOT Hips
{
  OFFSET 2.26061 22.2878 23.7974
  CHANNELS 6 Xposition Yposition Zposition Zrotation Xrotation Yrotation
  JOINT LeftUpLeg
  {
    OFFSET 8.64259 1.95398 -2.38835
    CHANNELS 3 Zrotation Xrotation Yrotation
    JOINT LeftLeg
    {
      OFFSET 43.7702 0 0
      CHANNELS 3 Zrotation Xrotation Yrotation
      JOINT LeftFoot
      {
        OFFSET 40.6238 0 0
        CHANNELS 3 Zrotation Xrotation Yrotation
        JOINT LeftToeBase
        {
          OFFSET 12.7242 0 0
          CHANNELS 3 Zrotation Xrotation Yrotation
          End Site
          {
            OFFSET 0 0 0
          }
        }
      }
    }
  }
  JOINT RightUpLeg
  {
    OFFSET -8.2249 1.95398 -2.59336
    CHANNELS 3 Zrotation Xrotation Yrotation
    JOINT RightLeg
    {
      OFFSET 43.5653 0 0
      CHANNELS 3 Zrotation Xrotation Yrotation
      JOINT RightFoot
      {
        OFFSET 40.6238 0 0
        CHANNELS 3 Zrotation Xrotation Yrotation
        JOINT RightToeBase
        {
          OFFSET 12.7242 0 0
          CHANNELS 3 Zrotation Xrotation Yrotation
          End Site
          {
            OFFSET 0 0 0
          }
        }
      }
    }
  }
  JOINT Spine
  {
    OFFSET 0.165834 0.87714 6.61349
    CHANNELS 3 Zrotation Xrotation Yrotation
    JOINT Spine1
    {
      OFFSET 7.38963 1.71661e-005 0
      CHANNELS 3 Zrotation Xrotation Yrotation
      JOINT Spine2
      {
        OFFSET 11.9445 1.14441e-005 0
        CHANNELS 3 Zrotation Xrotation Yrotation
        JOINT Spine3
        {
          OFFSET 14.7254 4.19617e-005 0
          CHANNELS 3 Zrotation Xrotation Yrotation
          JOINT Spine4
          {
            OFFSET 10.9679 0 0
            CHANNELS 3 Zrotation Xrotation Yrotation
            JOINT RightShoulder
            {
              OFFSET 2.46616 -1.6653 3.69651
              CHANNELS 3 Zrotation Xrotation Yrotation
              JOINT RightArm
              {
                OFFSET 13.0012 0 0
                CHANNELS 3 Zrotation Xrotation Yrotation
                JOINT RightForeArm
                {
                  OFFSET 28.7848 1.52588e-005 0
                  CHANNELS 3 Zrotation Xrotation Yrotation
                  JOINT RightHand
                  {
                    OFFSET 26.5688 1.52588e-005 0
                    CHANNELS 3 Zrotation Xrotation Yrotation
                    End Site
                    {
                      OFFSET 0 0 0
                    }
                  }
                }
              }
            }
            JOINT LeftShoulder
            {
              OFFSET 2.38034 -1.29275 -3.7523
              CHANNELS 3 Zrotation Xrotation Yrotation
              JOINT LeftArm
              {
                OFFSET 16.3182 6.10351e-005 0
                CHANNELS 3 Zrotation Xrotation Yrotation
                JOINT LeftForeArm
                {
                  OFFSET 27.0901 0 0
                  CHANNELS 3 Zrotation Xrotation Yrotation
                  JOINT LeftHand
                  {
                    OFFSET 24.5451 1.52588e-005 0
                    CHANNELS 3 Zrotation Xrotation Yrotation
                    End Site
                    {
                      OFFSET 0 0 0
                    }
                  }
                }
              }
            }
            JOINT Neck
            {
              OFFSET 5.0226 -0.0266342 0
              CHANNELS 3 Zrotation Xrotation Yrotation
              JOINT Head
              {
                OFFSET 6.69363 2.86102e-005 0
                CHANNELS 3 Zrotation Xrotation Yrotation
                End Site
                {
                  OFFSET 0 0 0
                }
              }
            }
          }
        }
      }
    }
  }
}
MOTION
Frames:	12
Frame Time:	0.0416667
-299.471 78.3858 -311.043 31.3904 -12.1883 -77.4879 -0.406417 44.0102 -98.6474 -50.5689 16.0955 2.13935 48.6889 -40.5399 39.3943 120.978 -30.5792 -114.578 98.0566 57.5442 178.518 -2.32519 -28.0691 2.6156 -22.8701 17.0177 44.7073 113.265 4.77647 -0.185501 0.555685 -5.54396 -80.7811 37.1337 7.23731 16.8131 25.3784 7.96025 16.4906 3.68787 1.9436 18.163 23.7005 1.94359 18.163 164.891 -56.1065 0.85204 67.2511 15.8925 34.6124 -101.665 -51.015 -18.3916 18.5001 -9.59995 -44.5045 -51.2413 40.7057 -34.8535 6.91862 63.6929 -109.169 -55.0928 -9.04951 -0.270505 -1.02559 -0.773504 -58.1477 -10.3275 -38.347 30.6197 32.6341 -45.0092 -22.0676 
-299.612 78.4787 -311.18 30.9687 -12.1387 -77.4691 -0.510781 44.1419 -98.6083 -50.8467 14.3675 2.10445 48.7726 -39.6906 37.947 116.625 -31.3783 -118.23 98.7317 57.4188 177.864 -2.31244 -28.4502 2.62859 -23.3069 16.9402 45.1712 113.46 4.56077 -0.474242 0.591761 -5.51947 -80.7876 37.0841 7.29451 16.773 25.3296 8.01573 16.448 3.63389 2.00983 18.1413 23.6465 2.00985 18.1413 165.006 -56.0603 1.01146 67.2333 15.9804 34.7177 -102.21 -51.2437 -18.8049 18.5936 -9.63235 -44.2968 -50.8254 40.8132 -35.0419 4.08266 63.8681 -106.979 -54.8799 -7.2947 -0.057076 -1.38511 -0.594274 -58.4583 -10.7501 -38.4908 30.1685 33.276 -45.0112 -21.4776 
-300.016 78.7524 -311.57 29.76 -12.0005 -77.4094 -0.819428 44.5197 -98.476 -51.6669 9.69847 2.00292 48.9023 -37.5299 33.6168 101.197 -31.8043 -130.744 100.646 57.0353 176.009 -2.26705 -29.6008 2.67047 -24.4974 16.735 46.5128 114.021 3.91365 -1.3274 0.694596 -5.44961 -80.8091 36.9431 7.45594 16.6536 25.1911 8.17195 16.3216 3.48004 2.19854 18.0744 23.4927 2.19854 18.0744 165.311 -55.9276 1.44088 67.176 16.2342 35.0256 -103.776 -51.8534 -20.0066 18.8688 -9.7202 -43.6964 -49.7195 41.0938 -35.5414 -4.40464 64.2253 -100.299 -53.929 -1.53455 -0.0694571 -2.43626 -0.0566604 -59.222 -11.9477 -38.8864 28.8805 35.0965 -44.992 -19.794 
-300.647 79.2278 -312.184 27.8593 -11.7916 -77.2969 -1.30761 45.1577 -98.1945 -52.9582 3.28511 1.82073 48.6704 -34.952 26.247 69.25 -21.504 -152.88 103.563 56.3635 173.19 -2.18088 -31.5985 2.74598 -26.1726 16.478 48.6641 114.902 2.80344 -2.74879 0.854759 -5.34077 -80.8501 36.7252 7.70319 16.4547 24.9772 8.41055 16.1119 3.24072 2.49213 17.9568 23.2534 2.49211 17.9568 165.735 -55.7176 2.05386 67.0708 16.6396 35.5262 -106.257 -52.6823 -21.9352 19.3205 -9.85193 -42.739 -48.1662 41.476 -36.2372 -18.6367 64.1652 -88.801 -51.0977 6.11461 -0.0673316 -4.14585 0.846608 -59.9731 -13.795 -39.464 26.8706 37.8966 -44.8919 -17.1722 
-301.395 79.5102 -312.908 25.3683 -11.5316 -77.115 -2.0343 45.4707 -97.6002 -55.9509 -3.2124 1.50988 48.1074 -32.9876 15.5055 25.478 15.0227 -161.277 107.408 55.3359 169.52 -2.03424 -34.6173 2.87441 -27.8663 16.3312 51.5181 116.043 1.15638 -4.77411 1.06159 -5.19993 -80.9157 36.4463 8.01552 16.176 24.7037 8.71084 15.8194 2.93187 2.87089 17.7825 22.9445 2.8709 17.7825 166.207 -55.4407 2.765 66.9056 17.1835 36.213 -109.53 -53.5397 -24.5128 19.946 -10.0136 -41.4661 -46.4273 41.8886 -37.0047 -37.7393 62.5337 -73.0606 -45.2247 12.2559 -0.0625196 -6.42666 2.04432 -59.8943 -16.1546 -40.1492 24.2618 41.4448 -44.6409 -13.793 
-302.237 79.615 -313.726 22.3909 -11.2408 -76.8485 -2.78407 45.6691 -96.5976 -60.2798 -8.50781 1.0081 45.8482 -31.9155 -0.0760223 -42.055 41.4837 -116.544 111.87 53.8992 165.329 -1.79297 -38.8759 3.0834 -29.2085 16.4881 55.033 117.349 -1.1363 -7.46926 1.30382 -5.03401 -81.01 36.122 8.37183 15.8196 24.3861 9.05171 15.4473 2.56945 3.31401 17.5476 22.5821 3.314 17.5476 166.672 -55.1084 3.50506 66.6638 17.8528 37.0819 -113.437 -54.2468 -27.6275 20.7367 -10.1894 -39.929 -44.7573 42.2724 -37.7233 -58.3402 57.9784 -56.077 -35.9069 12.9496 -0.0517813 -8.87617 3.17072 -57.7032 -18.8917 -40.876 21.1715 45.5016 -44.1789 -9.84954 
-303.188 79.7672 -314.661 19.0336 -10.9402 -76.4866 -3.09569 46.6024 -95.1838 -64.2505 -12.7594 0.279591 40.1116 -29.4599 -23.044 -79.7856 2.05119 -91.5135 116.545 52.0507 161.021 -1.38735 -44.632 3.44231 -29.8884 17.1949 59.1919 118.672 -4.21525 -10.9381 1.56963 -4.8496 -81.1348 35.7667 8.75129 15.3923 24.0384 9.41268 15.0031 2.16884 3.79971 17.2527 22.1815 3.7997 17.2527 167.094 -54.7324 4.22665 66.3255 18.6318 38.1289 -117.767 -54.6594 -31.1192 21.6736 -10.3625 -38.1909 -43.376 42.585 -38.2906 -76.2242 50.0015 -41.6102 -23.8633 5.39799 -0.0349821 -9.78357 3.16167 -51.8062 -21.8821 -41.593 17.7058 49.8353 -43.4687 -5.538 
-304.221 79.9776 -315.692 15.4061 -10.6517 -76.0252 -2.85276 49.2066 -93.5471 -65.5952 -14.5587 -0.671137 33.4591 -23.7207 -49.8951 -73.6984 -33.4966 -43.3352 121.174 49.8202 156.87 -0.660566 -52.1542 4.09703 -29.5471 18.8062 63.8647 119.786 -8.24874 -15.3407 1.84695 -4.65284 -81.2886 35.393 9.13457 14.9063 23.673 9.7749 14.5 1.74419 4.30602 16.904 21.7568 4.30601 16.904 167.456 -54.3242 4.90481 65.8688 19.5009 39.348 -122.267 -54.6828 -34.7869 22.7252 -10.5172 -36.3246 -42.4368 42.8026 -38.6367 -89.5744 39.4795 -30.9773 -10.8468 -8.18526 -0.0163443 -5.58619 1.03971 -42.6359 -25.0168 -42.266 13.9525 54.2403 -42.5014 -1.04373 
-305.309 80.2577 -316.79 11.6136 -10.3959 -75.4691 -3.09683 53.4171 -91.8844 -63.4647 -16.7684 -1.81459 30.3622 -14.237 -73.3275 -1.38583 -54.5386 40.6494 125.572 47.2815 153.064 0.818438 -61.5991 5.47557 -27.8586 21.7003 68.6598 120.332 -13.3961 -20.9231 2.12501 -4.44875 -81.4673 35.0104 9.50573 14.378 23.299 10.1232 13.9549 1.3072 4.81309 16.5124 21.3198 4.8131 16.5124 167.759 -53.8934 5.53256 65.2719 20.4354 40.7299 -126.68 -54.2803 -38.43 23.8519 -10.6411 -34.4016 -42.0077 42.918 -38.732 -98.7441 28.0597 -23.3888 1.46367 -18.4914 0.00231433 3.07862 -1.51482 -33.6375 -28.2113 -42.8742 9.97536 58.5575 -41.2927 3.47875 
-306.427 80.6077 -317.932 7.7498 -10.1896 -74.8302 -4.84693 57.9153 -89.9255 -60.1813 -19.6525 -3.13383 31.0336 -3.12713 -87.2119 31.3913 -28.5957 88.645 129.655 44.5264 149.694 4.73533 -72.8533 9.24156 -24.523 26.1468 72.8196 119.72 -19.7076 -28.0904 2.39509 -4.24111 -81.6648 34.6254 9.85308 13.825 22.9227 10.4466 13.386 0.866402 5.30478 16.0911 20.879 5.30478 16.091 168.005 -53.4474 6.10955 64.5143 21.4045 42.2632 -130.79 -53.4629 -41.8904 25.0115 -10.7256 -32.4813 -42.0954 42.9327 -38.5744 -104.657 17.2952 -17.6398 11.897 -20.4999 0.0189201 11.4823 -2.72122 -25.7155 -31.4026 -43.4046 5.8202 62.6794 -39.8745 7.91346 
-307.557 81.0137 -319.103 3.89721 -10.0457 -74.1268 -8.24832 62.0455 -87.1818 -57.3656 -23.0322 -4.61788 32.7833 0.732692 -99.3656 36.4032 -6.77201 106.731 133.409 41.6447 146.783 30.1951 -84.9688 34.4843 -19.146 32.0804 75.0718 116.985 -26.9713 -37.5487 2.65027 -4.0326 -81.8749 34.2422 10.1686 13.264 22.5477 10.7377 12.8105 0.427816 5.76856 15.6535 20.4405 5.76854 15.6535 168.194 -52.9921 6.63138 63.5786 22.3707 43.9336 -134.444 -52.2735 -45.0749 26.1627 -10.7655 -30.608 -42.6821 42.8484 -38.1717 -108.126 8.19775 -12.8527 19.3785 -16.1985 0.0297679 18.0884 -2.52868 -17.8052 -34.5406 -43.8494 1.52438 66.5415 -38.2875 12.177 
-308.676 81.4545 -320.289 0.127098 -9.97347 -73.3824 -13.3739 65.909 -83.1747 -54.8131 -25.5331 -6.19338 34.7984 9.01909 -103.556 34.9843 12.6769 118.423 136.842 38.7084 144.309 157.932 -80.3103 161.928 -11.0984 38.6833 73.6497 110.65 -34.445 -50.4581 2.8857 -3.82526 -82.0914 33.8631 10.4472 12.7096 22.1763 10.9922 12.2433 -0.0043984 6.19542 15.2119 20.0082 6.19542 15.2119 168.312 -52.5314 7.08054 62.4527 23.2883 45.7234 -137.557 -50.7772 -47.96 27.2657 -10.757 -28.81 -43.7588 42.6606 -37.5273 -109.794 1.14729 -8.53948 23.5652 -8.61519 0.479202 23.1833 -1.24238 -9.44691 -37.5843 -44.2022 -2.87487 70.1137 -36.5755 16.2094 
